<?xml version="1.0" standalone="no"?>
<!DOCTYPE svg PUBLIC "-//W3C//DTD SVG 1.1//EN" "http://www.w3.org/Graphics/SVG/1.1/DTD/svg11.dtd" >
<svg>
<metadata>
Created by FontForge 20090914 at Fri Feb 24 04:47:46 2012
 By root
Generated by Fontographer 4.1.4
</metadata>
<defs>
<font id="typo3-Normal" horiz-adv-x="614" >
  <font-face 
    font-family="typo3"
    font-weight="400"
    font-stretch="normal"
    units-per-em="1000"
    panose-1="0 0 4 0 0 0 0 0 0 0"
    ascent="800"
    descent="-200"
    x-height="626"
    cap-height="886"
    bbox="-69 -295 1525 1113"
    underline-thickness="20"
    underline-position="-123"
    unicode-range="U+0020-U+E002"
  />
<missing-glyph horiz-adv-x="500" 
d="M375 63v675h-250v-675h250zM63 800h375v-800h-375v800z" />
    <glyph glyph-name=".notdef" horiz-adv-x="500" 
d="M375 63v675h-250v-675h250zM63 800h375v-800h-375v800z" />
    <glyph glyph-name="NULL" horiz-adv-x="0" 
 />
    <glyph glyph-name="nonmarkingreturn" horiz-adv-x="345" 
 />
    <glyph glyph-name="space" unicode=" " horiz-adv-x="345" 
 />
    <glyph glyph-name="space" unicode="&#xa0;" horiz-adv-x="345" 
 />
    <glyph glyph-name="parenleft" unicode="(" horiz-adv-x="424" 
d="M446 -199q-215 0 -320 173q-88 145 -88 394q0 236 107 391q112 163 301 163l-3 -39q-133 0 -222 -137q-92 -143 -92 -379q0 -245 90 -384q85 -135 227 -135v-47z" />
    <glyph glyph-name="parenright" unicode=")" horiz-adv-x="400" 
d="M16 -194v47q132 0 215 135q84 139 84 384q0 235 -86 380q-82 136 -210 136l-3 40q178 0 285 -164q100 -154 100 -391q0 -248 -83 -394q-98 -173 -302 -173z" />
    <glyph glyph-name="plus" unicode="+" horiz-adv-x="626" 
d="M341 543v-224h212v-45h-212v-283h-86v283h-195v45h195v224h86z" />
    <glyph glyph-name="comma" unicode="," horiz-adv-x="295" 
d="M78 83q62 0 64 -102q2 -46 -35 -93q-27 -36 -68 -67q-9 -7 -18 -13l-18 -12l-17 17q80 71 80 156q-53 0 -53 50q0 31 22 49q19 15 43 15z" />
    <glyph glyph-name="hyphen" unicode="-" horiz-adv-x="279" 
d="M-12 366q100 -1 232 0q1 -35 0 -69h-232v69z" />
    <glyph glyph-name="period" unicode="." horiz-adv-x="151" 
d="M24 47q0 27 18.5 45.5t45.5 18.5t45.5 -18.5t18.5 -45.5t-18.5 -45.5t-45.5 -18.5t-45.5 18.5t-18.5 45.5z" />
    <glyph glyph-name="slash" unicode="/" horiz-adv-x="524" 
d="M92 0l260 718h77l-258 -718h-79z" />
    <glyph glyph-name="zero" unicode="0" horiz-adv-x="554" 
d="M391 377q0 193 -15 261q-26 117 -117 117q-74 0 -108 -148q-25 -107 -25 -269q0 -105 19 -180q32 -125 110 -125q136 0 136 344zM490 403q0 -422 -254 -422q-124 0 -173 178q-27 100 -27 236q0 185 53 291q59 116 177 116q134 0 184 -101q40 -84 40 -298z" />
    <glyph glyph-name="one" unicode="1" horiz-adv-x="385" 
d="M54 19q94 10 94 85v544l-117 -36v41q11 5 34 18.5l58 35.5q35 25 52 48l32 45l32 -2v-688q0 -81 109 -91v-19h-294v19z" />
    <glyph glyph-name="two" unicode="2" horiz-adv-x="505" 
d="M35 27l103.5 150l103.5 151q112 173 112 301q0 73 -37 101q-32 26 -99 26q-58 0 -104 -31q-39 -27 -55 -60l-35 25q15 41 78 79q51 30 119 30q105 0 164 -44t59 -128q0 -125 -110 -321l-74 -124.5l-75 -124.5h286v-57h-436v27z" />
    <glyph glyph-name="three" unicode="3" horiz-adv-x="504" 
d="M58 96q60 -70 136 -70q83 0 127 57q40 50 40 132q0 59 -62 118q-58 55 -112 55h-8q-6 35 0 47q48 0 101 48q59 54 59 122q0 64 -43 110q-42 46 -104 46q-35 0 -74 -14q-41 -15 -61 -38l-31 28q46 63 173 63q96 0 158 -52q68 -56 68 -148q0 -58 -32 -113q-32 -54 -86 -74
q69 -23 106 -78.5t37 -128.5q0 -114 -72 -172q-68 -53 -186 -53q-100 0 -165 83z" />
    <glyph glyph-name="four" unicode="4" horiz-adv-x="535" 
d="M78 261l240 2v361zM403 82q0 -31 34 -47q4 -2 18.5 -7t40.5 -13v-15h-254v15q76 13 76 49v155h-343v12l409 572l19 -2v-540h91l-20 -44h-71v-135z" />
    <glyph glyph-name="five" unicode="5" horiz-adv-x="546" 
d="M451 803l-17 -41h-273v-235q35 29 112 29q95 0 158 -77q54 -68 54 -189q0 -131 -70 -216q-69 -85 -178 -85q-104 0 -172 62l24 33q70 -63 147 -63q69 0 117 80q45 76 45 177q0 109 -39 166.5t-109 57.5q-30 0 -93 -23q-57 -23 -75 -39v363h369z" />
    <glyph glyph-name="six" unicode="6" horiz-adv-x="564" 
d="M274 24q52 0 100 67q54 75 55 175q2 100 -35 166q-39 72 -104 72q-79 0 -133 -71q-49 -67 -49 -151t38 -162q48 -96 128 -96zM397 757q-80 -8 -159 -95q-73 -81 -90 -158q70 50 142 50q112 0 170 -79q56 -76 56 -207q0 -98 -69 -188q-77 -99 -179 -99q-247 0 -247 360
q0 174 118 316q119 143 257 143z" />
    <glyph glyph-name="seven" unicode="7" horiz-adv-x="505" 
d="M402 621q-68 -141 -145 -329q-35 -87 -61 -159.5t-43 -132.5h-94q40 126 126 326l44 105l45 105l46.5 107.5t40.5 83.5h-370v61h477v-29z" />
    <glyph glyph-name="eight" unicode="8" horiz-adv-x="574" 
d="M275 393q-127 -70 -127 -186q0 -63 41 -113q43 -52 105 -52q61 0 101 49t40 116q0 64 -53 114q-33 31 -107 72zM297 738q-55 0 -87.5 -36.5t-32.5 -91.5q0 -78 147 -153q80 77 80 154q0 52 -31 89q-32 38 -76 38zM288 -19q-233 0 -233 226q0 67 42 130q42 64 111 94
q-57 31 -90.5 78.5t-33.5 99.5q0 89 60 139q55 48 147 48q95 0 148 -46q59 -50 59 -141q0 -53 -34 -105q-35 -53 -87 -83q151 -85 151 -214q0 -111 -64 -168.5t-176 -57.5z" />
    <glyph glyph-name="nine" unicode="9" horiz-adv-x="588" 
d="M281 768q-52 0 -100 -68q-54 -75 -55 -174q-2 -101 35 -167q38 -71 104 -71q79 0 133 71q49 65 49 151q0 84 -38 162q-48 96 -128 96zM158 35q80 8 159 94q73 81 90 159q-70 -50 -142 -50q-112 0 -170 79q-56 76 -56 207q0 97 69 187q76 100 179 100q247 0 247 -360
q0 -173 -119 -316t-256 -143z" />
    <glyph glyph-name="colon" unicode=":" horiz-adv-x="69" 
d="M-31 44q0 27 18.5 45.5t45.5 18.5t45.5 -18.5t18.5 -45.5t-18.5 -45.5t-45.5 -18.5t-45.5 18.5t-18.5 45.5zM-28 494q0 27 18.5 45.5t45.5 18.5t45.5 -18.5t18.5 -45.5t-18.5 -45.5t-45.5 -18.5t-45.5 18.5t-18.5 45.5z" />
    <glyph glyph-name="semicolon" unicode=";" horiz-adv-x="100" 
d="M69 83q-24 0 -43 -15q-22 -18 -22 -49q0 -50 53 -50q0 -85 -80 -156l17 -17l18 12t18 13q41 31 68 67q37 47 35 93q-2 102 -64 102zM3 494q0 27 18.5 45.5t45.5 18.5t45.5 -18.5t18.5 -45.5t-18.5 -45.5t-45.5 -18.5t-45.5 18.5t-18.5 45.5z" />
    <glyph glyph-name="question" unicode="?" horiz-adv-x="132" 
d="M147 174q-9 109 -9 166q0 33 3 38q21 28 47 30q123 3 175 76q42 58 42 170q0 198 -150 198q-19 0 -62 -18q-56 -23 -57 -100q-12 -5 -24 -4l-10 128q60 30 198 30q57 0 109 -40q82 -63 82 -198q0 -136 -88 -211q-61 -52 -132 -58q-47 -5 -57 -33q-11 -95 -15 -174
q-33 -1 -52 0zM115 46q0 27 18.5 45.5t45.5 18.5q26 0 45 -18.5t19 -45.5q0 -26 -19 -45t-45 -19q-27 0 -45.5 19t-18.5 45z" />
    <glyph glyph-name="at" unicode="@" horiz-adv-x="771" 
d="M481 331q-100 1 -146 -9q-86 -21 -86 -90q0 -36 27 -61q28 -26 59 -26q77 0 144 58q2 2 2 128zM480 162q-100 -44 -145 -44q-73 0 -110 42q-30 33 -30 77q0 90 110 116q19 4 62 6.5t112 3.5q3 81 -27.5 124t-84.5 43q-62 0 -118 -40q-1 7 0 31q58 38 129 38q58 0 98 -28
q56 -41 56 -126l3 -205q0 -52 37 -52q25 0 51 47q31 55 31 140q0 105 -67 184q-77 90 -202 90t-200 -113q-66 -98 -66 -229q0 -112 85 -191q80 -74 178 -74q115 0 201 68l31 -15q-98 -85 -235 -85q-124 0 -219 76q-110 87 -110 226q0 87 22 155.5t64 116.5t104 73t142 25
q164 0 256 -85q79 -73 79 -172q0 -129 -41 -197.5t-113 -68.5q-90 0 -83 43z" />
    <glyph glyph-name="A" unicode="A" horiz-adv-x="957" 
d="M480 791l-149 -341h283zM696 0l2 22q73 4 73 43q0 3 -2 11q-5 18 -129 312h-333l-147 -316q-5 -13 -5 -22q0 -25 33 -26q10 -1 18.5 -1t15.5 -1v-22h-219q-1 0 0 22q2 -5 25 1q25 6 38 13q22 10 189 384l113.5 255t56.5 135q2 6 2 9q0 7 -4 14.5t-10 13.5t-13 10t-13 4
h-24.5t-30.5 1v24h195l338 -811q18 -35 39 -46q11 -5 47 -7q1 -3 1 -8.5t1 -13.5h-257z" />
    <glyph glyph-name="B" unicode="B" horiz-adv-x="789" 
d="M218 449q1 -60 1 -120v-121q3 -158 18 -160l33 -3q20 -2 39.5 -3.5t38.5 -1.5q118 0 192 42q102 59 101 192q-1 94 -91 142q-73 39 -171 37q-67 -2 -107 -2.5t-54 -1.5zM548 698q-2 53 -52 100q-50 48 -104 48q-61 0 -103.5 -1t-65.5 -3l-2 -338h156q59 0 112 48
q62 57 59 146zM49 886h382q65 0 124 -42q75 -56 75 -151q0 -126 -133 -199q122 -24 175 -77q60 -59 60 -174q0 -77 -67 -151q-83 -92 -209 -92h-407v18q81 0 88 103q3 41 4.5 115.5t2.5 183.5q0 104 -1.5 184t-3.5 137q-6 132 -90 131v14z" />
    <glyph glyph-name="C" unicode="C" horiz-adv-x="802" 
d="M720 694h-21q-8 48 -32 79q-60 80 -201 80q-158 0 -257 -134q-85 -115 -85 -254q0 -171 74 -287q96 -148 293 -148q149 0 248 96h13v-85q-101 -62 -270 -60q-179 0 -303 101q-149 123 -149 362q0 213 150 342q136 118 332 118q129 0 208 -65v-145z" />
    <glyph glyph-name="D" unicode="D" horiz-adv-x="858" 
d="M210 846q0 -26 -1 -88.5t-3 -163.5q-3 -189 -3 -295q0 -69 1.5 -124.5t3.5 -98.5q2 -38 42 -38h39q7 -1 16 -1h21q137 0 247 90q138 112 138 314q0 98 -29 173.5t-84.5 126.5t-136 77.5t-183.5 26.5h-56.5t-11.5 1zM272 886q523 0 523 -442q0 -220 -156 -341
q-133 -103 -332 -103h-265v16q87 -2 87 182v80.5t1 179.5q1 101 1.5 171t-0.5 112q-2 125 -89 125q-2 0 0 20h230z" />
    <glyph glyph-name="E" unicode="E" horiz-adv-x="752" 
d="M655 886l-6 -146h-22q-3 105 -92 105l-301 1l-5 -350q104 -1 175 -1t110 2q48 2 64 36q11 23 8 40h23v-201h-23q-2 78 -66 78l-291 -1q0 3 0 -41.5t1 -137.5v-216q22 -8 332 -8q83 0 87 82q12 -2 21 0q-1 -32 -1.5 -64t-1.5 -64h-611l1 19q92 8 92 65q0 256 -1 433.5
t-3 282.5q-1 38 -42 58q-18 8 -41 11v17h593z" />
    <glyph glyph-name="F" unicode="F" horiz-adv-x="733" 
d="M656 886l-6 -147h-22q-3 105 -92 105l-301 1l-5 -349q207 -3 285 0q48 2 64 36q11 23 8 41h23v-204h-23q-2 78 -66 78l-291 -1l1 -321q0 -72 39 -96q18 -12 54 -13v-16h-267l1 19q80 6 88 57q2 11 2.5 99t-0.5 253q-1 143 -1 235t-1 137q-2 33 -42 55q-8 5 -18.5 8.5
l-22.5 7.5v15h593z" />
    <glyph glyph-name="G" unicode="G" horiz-adv-x="803" 
d="M499 904q119 0 208 -56l4 -154h-26q0 84 -79 127q-62 34 -153 34q-115 0 -213 -91q-124 -112 -124 -311q0 -207 121 -325q100 -98 222 -98q118 0 195 40q1 72 1.5 134t0.5 114q0 99 -102 99q-12 0 -17 -1v28l198 -1l-1 -409q-118 -53 -267 -53q-163 0 -282 89
q-156 118 -156 357q0 265 187 391q128 86 283 86z" />
    <glyph glyph-name="H" unicode="H" horiz-adv-x="977" 
d="M2 886h260v-18q-16 7 -47 -12q-43 -27 -43 -97q0 -63 -0.5 -132t-1.5 -147h550q0 126 -0.5 199t-1.5 94q-5 98 -77 95v18h248q1 0 0 -18q-35 0 -51 -16q-37 -33 -37 -138q0 -256 0.5 -398t1.5 -173q4 -127 76 -127q8 0 11 1v-17h-233v17q30 3 42 17q24 28 24 116l-2 274
h-551l1 -254q0 -101 31 -133q17 -17 60 -20v-17h-260v17q45 7 58 20q27 29 29 128l-1 586q-1 124 -86 117v18z" />
    <glyph glyph-name="I" unicode="I" horiz-adv-x="377" 
d="M318 886v-19q-36 0 -54 -8q-39 -17 -39 -73q0 -590 3 -693q2 -44 46 -63q18 -9 44 -12v-18h-258v17q82 3 84 90l-1 684q-1 52 -40 71q-25 12 -43 9v15h258z" />
    <glyph glyph-name="J" unicode="J" horiz-adv-x="534" 
d="M246 886h260v-16q-91 -7 -90 -113l-1 -587q0 -87 -67 -139q-62 -50 -147 -50q-99 0 -152 52l2 141h27q-2 -40 23 -88q34 -69 101 -69q118 0 132 183q3 42 0 272q-3 295 -3 287q0 107 -85 111v16z" />
    <glyph glyph-name="K" unicode="K" horiz-adv-x="864" 
d="M316 886v-19q-78 -6 -85 -109q-4 -48 -5 -115t1 -154l197.5 186t125.5 125q35 37 35 53q0 11 -19 14h-31l-2 19h219l-2 -19q-53 1 -135 -78l-164.5 -170.5l-119.5 -127.5q22 -20 67 -65l114 -117l117 -118t84 -79q104 -92 147 -92q-2 0 0 -20h-155l-441 433l-37 -42
q-1 -55 -0.5 -116t2.5 -130q1 -81 42 -111q24 -19 45 -14q-2 -15 0 -20h-262v20q1 0 5 1q2 1 6.5 1t9.5 2q26 5 42 22q23 28 26 83q3 54 4.5 134t2.5 186q0 112 -1.5 189t-5.5 120q-9 109 -89 109v19h262z" />
    <glyph glyph-name="L" unicode="L" horiz-adv-x="615" 
d="M324 886v-17q-91 -12 -93 -113q-2 -198 -1 -363.5t6 -303.5q2 -39 39 -40q121 -8 213 -6q65 2 89 51q9 19 11 50h19v-144h-553v19q24 -2 45 8q34 16 40 55q4 34 9 317q2 138 2 229t-1 137q-3 106 -95 104v17h270z" />
    <glyph glyph-name="M" unicode="M" horiz-adv-x="1236" 
d="M64 886h175l402 -741q177 366 378 741h164l1 -15q-32 -1 -46 -21q-15 -20 -17 -80q-1 -31 0 -101.5t4 -182.5l7 -195t7 -140q8 -140 92 -131l7 -20h-271v20q72 0 76 100q2 51 -2 209.5t-15 429.5q-81 -147 -198 -381l-105 -215l-76 -163h-38l-394 757q-9 -530 -9 -635
t85 -102v-20h-241l2 20q90 -7 97 118q3 46 6 298q3 266 0 334q-1 62 -46 88q-20 12 -43 13z" />
    <glyph glyph-name="N" unicode="N" horiz-adv-x="1000" 
d="M237 886q40 -60 106.5 -151.5l162.5 -219.5l129 -171l128 -170q-6 613 -6 616q-2 49 -48 68q-10 4 -21 6.5t-25 3.5v18h236l-1 -18q-22 1 -45 -17q-34 -28 -34 -90q0 -209 1.5 -398t5.5 -363h-48l-563 752q2 -232 1.5 -380.5t-2.5 -217.5q-5 -138 95 -138v-16h-248l3 16
q96 21 97 141l1 550q0 142 -100 161v18h175z" />
    <glyph glyph-name="O" unicode="O" horiz-adv-x="960" 
d="M834 452q0 196 -94 300q-93 105 -254 105q-142 0 -245 -108q-115 -118 -115 -311q0 -195 118 -307q104 -98 251 -98q128 0 225 100q114 117 114 319zM930 463q0 -190 -116 -329q-128 -153 -338 -153q-211 0 -331 144q-109 130 -109 330q0 191 136 318q136 129 334 129
q211 0 327 -141q97 -119 97 -298z" />
    <glyph glyph-name="P" unicode="P" horiz-adv-x="710" 
d="M234 422q15 -2 26.5 -3t19.5 -1q120 0 206 36q129 54 129 178q0 209 -270 209q-17 0 -35.5 -1t-38.5 -3q-36 -3 -38 -3zM459 886q118 0 186 -75q60 -66 60 -166q0 -105 -91 -187q-84 -74 -187 -84q-59 -5 -107 -7t-86 0q-4 -105 -2.5 -173t7.5 -102q14 -80 89 -74v-18
h-257v18q20 1 37 10q37 16 39 57q4 111 5 253.5t-1 319.5q-1 52 -4 90t-10 63q-11 41 -31 51q-6 4 -43 7v17h396z" />
    <glyph glyph-name="Q" unicode="Q" horiz-adv-x="948" 
d="M832 479q0 163 -108 271q-102 102 -243 102q-129 0 -224 -76q-135 -108 -135 -335q0 -199 122 -312q102 -93 239 -93q40 0 97 22q102 37 165 120q87 114 87 301zM1013 -238q-8 -4 -16 -7t-16 -7q-42 -19 -81 -19q-68 0 -194 130l-64 72l-64 72q-43 -20 -134 -20
q-183 0 -297 120q-119 125 -119 337q0 202 152 339q137 124 305 124q438 0 438 -439q0 -170 -97 -297q-66 -87 -157 -132q11 -19 42.5 -54l83.5 -89q117 -120 149 -120q49 0 60 11z" />
    <glyph glyph-name="R" unicode="R" horiz-adv-x="865" 
d="M608 627q0 116 -80 173q-61 43 -144 43q-56 0 -152 -6q-5 -95 -6.5 -192t2.5 -199q-2 0 15.5 -2.5t41.5 -4.5q17 -1 36 -1.5t41 -0.5q96 0 160 35q86 48 86 155zM734 0q-63 0 -325 385q-78 -3 -123 -3.5t-58 1.5q-4 -94 -4 -161t2 -109q4 -85 97 -94v-19h-265v19
q3 -1 12 -1q68 0 73 101q4 76 3 328q0 131 -1.5 213.5t-3.5 117.5q-6 91 -83 91v17h394q101 0 174 -65q81 -72 81 -194q0 -114 -102 -181q-42 -26 -102 -43l63 -86l62 -86l77.5 -100t54.5 -63q44 -44 100 -50v-18h-126z" />
    <glyph glyph-name="S" unicode="S" horiz-adv-x="717" 
d="M400 904q93 -2 150 -22q25 -9 41 -22v-193l-20 2q-2 11 -5 21.5t-5 21.5q-20 52 -54 87q-50 49 -123 53q-74 4 -135 -27q-85 -43 -85 -145q0 -76 73 -118q47 -27 178 -59q92 -22 163 -85q81 -72 81 -166q0 -125 -100 -200q-92 -70 -228 -70q-153 0 -277 75v189h23
q6 -93 96 -158q77 -56 158 -56q78 0 146 47q83 57 83 152q0 80 -56 136q-50 52 -135 70q-134 29 -205 74q-98 62 -99 161q-1 126 124 188q93 45 211 44z" />
    <glyph glyph-name="T" unicode="T" horiz-adv-x="792" 
d="M781 886v-153h-14q-14 97 -111 98h-208q0 8 0 -65.5t-1 -229.5q-1 -155 -1 -250.5v-132.5q0 -141 94 -134v-19h-262v19q10 -2 15 -2q66 0 68 108l-2 706h-227q-70 0 -89 -91h-17v146h755z" />
    <glyph glyph-name="U" unicode="U" horiz-adv-x="963" 
d="M832 886q-2 -347 -1.5 -542t2.5 -238q6 -87 92 -84v-22h-178l1 140q-98 -78 -149 -108q-90 -51 -185 -51q-159 0 -244 83q-81 79 -81 225q0 60 -0.5 131.5t-1.5 157.5l-1.5 133t-0.5 53q0 99 -85 106v16h177q-2 -223 -3.5 -358t-1.5 -186q0 -123 47 -200q60 -95 189 -95
q131 0 234 82q104 83 105 179q1 128 1.5 235.5t0.5 198.5q0 82 -32 111q-17 14 -54 17v16h169z" />
    <glyph glyph-name="V" unicode="V" horiz-adv-x="921" 
d="M312 886v-16q-86 -5 -86 -73q0 -18 8 -45q17 -51 55.5 -146.5l98.5 -237.5q122 -281 134 -288l103 263.5l156 423.5q9 24 9 43q0 62 -86 60v16h275l-2 -16q-47 0 -75 -24q-44 -36 -87 -142l-258 -684q-72 -39 -82 -39q-9 0 -354 772q-31 70 -82 100q-32 17 -62 17v16h335
z" />
    <glyph glyph-name="W" unicode="W" horiz-adv-x="1485" 
d="M268 887v-18q-64 -3 -64 -71q0 -36 23 -93l239 -573l294 771l78 -43l175 -417.5l109 -260.5l169.5 431.5t60.5 153.5q9 25 9 45q0 56 -69 59v15h233v-18q-1 1 -7 1q-67 0 -133 -182l-155.5 -409.5l-115.5 -296.5h-16l-319 803l-320 -803h-16l-324 756q-38 83 -81 116
q-28 22 -38 16v18h268z" />
    <glyph glyph-name="X" unicode="X" horiz-adv-x="910" 
d="M340 886q1 -11 0 -15q-75 0 -75 -36q0 -16 13 -35l109 -155.5l79 -112.5l156 192t67 93q4 7 4 16q0 32 -67 38v15h228v-15q-62 -8 -117 -71l-243 -312l288 -393q36 -48 81 -67q10 -4 19.5 -6.5t19.5 -3.5v-18l-278 1v17q62 -2 62 36q0 18 -16 43l-124 176.5l-105 144.5
l-179.5 -238.5l-83.5 -109.5q-9 -12 -9 -21q0 -26 65 -31v-18h-235v18q45 -10 170 128q153 193 240 315l-228 321q-47 62 -79 78q-15 7 -55 11v14z" />
    <glyph glyph-name="Y" unicode="Y" horiz-adv-x="877" 
d="M-52 886h277v-22q-3 1 -22 1q-48 0 -48 -28q0 -17 20 -46l132.5 -191l94.5 -139l151 195l94 125q23 32 23 52q0 35 -66 31v22h252v-22q-2 2 -17 2q-56 0 -111 -66l-168.5 -216l-123.5 -164v-284q0 -78 47 -104q28 -14 50 -10v-22h-269l3 17q83 5 84 91q2 86 2 159t-1 136
l-136.5 198.5l-124.5 172.5q-49 65 -99 85q-15 6 -44 6q-2 0 0 21z" />
    <glyph glyph-name="Z" unicode="Z" horiz-adv-x="840" 
d="M732 886l-325.5 -479.5l-240.5 -356.5q206 -2 319.5 -2t134.5 1q79 3 111 27q19 16 22 47h23v-123h-768q83 109 230 318.5l358 519.5l-304 -1q-132 -2 -132 -94h-23l3 143h592z" />
    <glyph glyph-name="bracketleft" unicode="[" horiz-adv-x="307" 
d="M135 887q8 1 39 1h88h86.5t39.5 -1v-45q-105 2 -143 -30q-28 -22 -28 -76l-7 -660q0 -239 10 -263q15 -37 44 -49q32 -13 124 -13v-46l-253 1v1181z" />
    <glyph glyph-name="bracketright" unicode="]" horiz-adv-x="273" 
d="M219 887v-1181l-253 -1v46q92 0 124 13q29 12 44 49q10 24 10 263q0 120 -3 338l-3 228.5t-1 93.5q0 54 -28 76q-38 32 -143 30v45q8 1 40 1h87h87t39 -1z" />
    <glyph glyph-name="asciicircum" unicode="^" 
d="M369 671l-179 144l-75 -63l-100 -81l-16 10q147 205 199 205t184 -207z" />
    <glyph glyph-name="a" unicode="a" horiz-adv-x="690" 
d="M487 300q-152 4 -227 -14q-132 -32 -132 -134q0 -51 41 -92q42 -39 93 -39q118 0 222 87q3 3 3 192zM660 -1q-95 1 -159 0q-14 3 -14 48l-79.5 -33t-48.5 -18q-48 -15 -98 -15q-113 0 -171 63q-46 49 -46 115q0 97 85 143q32 17 77 28t105 15q4 1 174 3q4 118 -45 186
q-46 64 -129 64q-42 0 -98 -19q-50 -17 -85 -41q-2 11 0 46q86 58 200 58q91 0 153 -43q86 -59 86 -188l5 -307q0 -33 22 -58q26 -29 67 -29q1 -1 -1 -18z" />
    <glyph glyph-name="b" unicode="b" horiz-adv-x="807" 
d="M684 316q0 115 -57 196q-62 87 -157 87q-93 0 -167 -67q-92 -83 -92 -227q0 -117 68 -200q71 -86 177 -86q86 0 156 88q72 88 72 209zM462 -19q-77 0 -140 20q-39 13 -75 38q-29 21 -32 21q-20 0 -60 -60h-29q0 16 3 222q1 78 1.5 141t0.5 114q0 102 -2 180t-6 135
q-4 79 -78 79v17h166v-369l83 58t54 33q61 30 132 30q139 0 220 -95q71 -86 71 -205q0 -167 -112 -272q-93 -87 -197 -87z" />
    <glyph glyph-name="c" unicode="c" horiz-adv-x="607" 
d="M617 55q1 -13 -74 -42q-89 -33 -176 -33q-175 0 -259 128q-56 86 -56 180q0 188 138 283q104 71 230 71q22 0 46.5 -2.5t51.5 -7.5q56 -11 71 -23l-11 -142q-11 -1 -22 5q-3 81 -86 116q-28 11 -71 11q-119 0 -193 -83q-67 -77 -67 -195q0 -131 87 -216q79 -77 176 -77
q70 0 119 17q37 13 96 51v-41z" />
    <glyph glyph-name="d" unicode="d" horiz-adv-x="794" 
d="M592 378q0 76 -72 153q-72 76 -153 78q-99 1 -170 -85q-70 -85 -70 -219q0 -66 15.5 -119t45.5 -90t73.5 -56.5t98.5 -19.5q71 0 138 59q60 53 77 112q14 52 17 97v90zM595 0v72l-50 -28l-50 -28q-73 -35 -143 -35q-314 0 -314 341q0 126 76 214q88 106 248 106
q110 0 229 -92q-1 50 -1 107.5t-1 123.5q1 51 -34 74q-24 14 -48 13v17h168q-2 -189 -2.5 -386t1.5 -406q15 -75 87 -74q-2 -12 0 -20z" />
    <glyph glyph-name="e" unicode="e" horiz-adv-x="616" 
d="M498 448q0 64 -48 109q-47 46 -113 46q-72 0 -129 -54q-47 -45 -62 -101h352zM589 392q-71 -2 -460 0q-10 -30 -10 -81q0 -106 81 -193q78 -83 163 -83q86 0 154 33l60 36q-2 -15 0 -45q-102 -78 -254 -78q-127 0 -212 96q-85 95 -85 245q0 130 81 220q88 100 236 100
q99 0 167 -61q79 -69 79 -189z" />
    <glyph glyph-name="f" unicode="f" horiz-adv-x="393" 
d="M474 733q-6 0 -18 5q0 124 -116 124q-53 0 -93 -61q-37 -55 -37 -112l1 -90h192v-37h-191q-2 -26 -2 -85.5t1 -153.5q1 -90 1.5 -142t2.5 -68q7 -96 88 -96v-17q-40 -1 -254 0q0 11 2 17q50 0 69 40q10 22 12 72q2 34 3 142t1 291h-97v36h40.5t52.5 1q-1 1 2 81
q5 92 77 157q67 63 148 63q72 0 115 -25v-142z" />
    <glyph glyph-name="g" unicode="g" horiz-adv-x="640" 
d="M539 -109q0 64 -59 99q-52 31 -144 31l-142 -2q-35 -16 -55 -63q-13 -33 -13 -70q0 -76 76 -116q59 -32 125 -32q91 0 149 40q63 42 63 113zM435 542q-44 68 -132 68q-85 0 -133 -68q-41 -61 -41 -146q0 -67 50 -115q52 -47 119 -47q40 0 73 12.5t56 35t36 55t13 73.5
q0 67 -41 132zM503 554q23 -15 39 -52q18 -41 18 -88q0 -100 -104 -162q-23 -14 -71.5 -33t-122.5 -43q-104 -35 -104 -67q0 -24 80 -24h26.5t39.5 1q24 1 42.5 1.5t32.5 0.5q240 0 240 -206q0 -60 -68 -111q-85 -64 -232 -64q-144 0 -217 61q-54 45 -54 102q0 102 109 156
q-68 23 -68 67q0 53 56 77l63.5 19.5l63.5 19.5q-226 40 -226 212q0 79 70 146q78 75 190 75q48 0 99 -22t45 -22h147v-44h-94z" />
    <glyph glyph-name="h" unicode="h" horiz-adv-x="776" 
d="M757 17q0 -16 1 -17h-252v17q42 0 63 31q18 26 17 66q-1 11 -0.5 28t1.5 41q1 30 1 51.5v34.5q0 138 -27 210q-38 102 -132 102t-158 -67q-56 -58 -58 -121q-1 -77 -0.5 -146t2.5 -132q2 -42 20 -66q23 -32 68 -32v-17h-253v18q48 1 70 37q18 28 18 381v208.5t1 11.5
q-1 162 -13 180q-7 10 -13 16.5t-13 10t-17 5t-25 1.5v17h165l-7 -364q94 64 126 81q70 39 127 39q178 0 195 -206q2 -26 3 -60.5t1 -77.5q-2 -111 0 -137q1 -13 1 -25t1 -23q1 -20 8.5 -37.5t19.5 -30.5t27 -20.5t32 -7.5z" />
    <glyph glyph-name="i" unicode="i" horiz-adv-x="344" 
d="M52 -1v18q52 0 68 31q8 14 11 49q4 48 5 153t-1 271q0 87 -82 87v19h171q0 -2 -1.5 -68.5t-3.5 -200.5q-1 -81 -1 -139t2 -95q2 -63 23 -85t71 -22l-1 -18h-261zM105 822q0 27 18.5 45.5t45.5 18.5q26 0 45 -18.5t19 -45.5t-19 -45.5t-45 -18.5q-27 0 -45.5 18.5
t-18.5 45.5z" />
    <glyph glyph-name="j" unicode="j" horiz-adv-x="328" 
d="M83 822q0 27 18.5 45.5t45.5 18.5t45.5 -18.5t18.5 -45.5t-18.5 -45.5t-45.5 -18.5t-45.5 18.5t-18.5 45.5zM207 -113q0 -72 -58 -127q-53 -52 -115 -52v20q33 9 62 50q28 40 30 90q5 146 4.5 302.5t-5.5 327.5q-2 50 -12 71q-20 38 -72 38v20q2 -2 64 -2
q34 -1 59.5 -0.5t42.5 1.5v-739z" />
    <glyph glyph-name="k" unicode="k" horiz-adv-x="669" 
d="M536 -1q-5 0 -154 173q-147 173 -153 173q-2 0 -5 -4.5t-6 -11.5t-5.5 -14.5t-2.5 -13.5l1 -179q5 -104 87 -104q-2 -2 0 -18h-249q-2 12 0 18q74 0 79 99q1 43 3 302q1 271 0 310q-3 68 -10 86q-16 55 -75 55v17h163v-503q35 27 89.5 73.5l129.5 113.5q7 7 7 14
q0 20 -62 20v22h225v-22q-33 0 -46 -3q-22 -5 -42 -22l-216 -184l75 -90l74 -91q104 -123 172 -170q27 -18 78 -27v-19h-157z" />
    <glyph glyph-name="l" unicode="l" horiz-adv-x="344" 
d="M53 -1v16q24 0 44 11q34 19 34 62v693q-1 88 -85 88v17h168v-566.5t1 -217.5q2 -44 31 -66q25 -19 61 -19q1 -1 1 -18h-255z" />
    <glyph glyph-name="m" unicode="m" horiz-adv-x="1244" 
d="M956 0v17q13 0 27 4t25.5 12t19 18.5t7.5 24.5q6 241 0 348q-4 73 -66 118q-53 38 -110 38q-86 0 -143 -59q-52 -53 -53 -117q-9 -298 1 -322q15 -38 18 -41q18 -25 63 -25q-2 -11 0 -16h-250v16q15 0 29 6t25.5 15.5t18.5 22t7 26.5l1 305q0 100 -40.5 144.5
t-133.5 44.5q-63 0 -119 -56q-55 -55 -58 -126q-3 -63 -3 -269q0 -113 87 -113v-16l-254 1q-2 1 0 15q82 0 84 122q4 142 0 358q-1 115 -85 115q1 6 0 16h166v-17.5t1 -28.5t1 -30v-22l84.5 55.5t33.5 21.5q67 37 131 37q115 0 174 -123q114 75 121 79q77 44 133 44
q95 -1 157 -60q61 -58 63 -160v-145t1 -189q2 -35 28 -54q24 -18 55 -18v-17h-247z" />
    <glyph glyph-name="n" unicode="n" horiz-adv-x="792" 
d="M768 17q2 -15 1 -17h-254v17q29 0 53 17t27 44l6 301q-6 204 -165 204q-70 0 -125 -40q-60 -43 -77 -117q-5 -25 -8 -142q-2 -60 -2 -100t1 -62q6 -105 89 -105v-17l-254 1q3 10 0 15q32 2 62 27q24 19 24 236v51.5t-1 67.5t-1 63v37q0 112 -84 112v17h167q1 -13 1 -38
v-63q71 54 98 70q83 47 163 47q71 0 121 -44q63 -56 66 -164q0 -313 12 -361q7 -24 30 -40.5t50 -16.5z" />
    <glyph glyph-name="o" unicode="o" horiz-adv-x="749" 
d="M620 334q0 109 -72 186q-70 76 -174 76t-176 -73q-76 -76 -76 -204q0 -120 86 -211q79 -81 164 -81q131 0 198 115q50 86 50 192zM352 -19q-152 0 -239 113q-70 91 -70 201q0 157 119 258q106 89 230 89q128 0 223 -83q96 -86 96 -208q0 -180 -113 -281
q-100 -89 -246 -89z" />
    <glyph glyph-name="p" unicode="p" horiz-adv-x="839" 
d="M688 303q0 120 -63 204q-67 88 -170 88q-238 0 -238 -298q0 -140 89 -217q68 -59 138 -59q99 0 171 81q73 80 73 201zM782 300q0 -139 -114 -233q-104 -86 -234 -86q-53 0 -126 27q-60 22 -90 40l-1 -239q0 -83 87 -83l1 -18h-252v19q74 0 79 75q11 159 0 707
q-1 46 -23 73.5t-64 27.5v16h168v-95q50 48 121 80q73 32 132 32q159 0 241 -97q75 -90 75 -246z" />
    <glyph glyph-name="q" unicode="q" horiz-adv-x="856" 
d="M640 318q0 114 -73 197q-77 86 -186 86q-122 0 -188 -95q-57 -83 -57 -212q0 -99 59 -179q67 -93 180 -93q118 0 191 79q74 80 74 217zM820 -270q-1 -1 -1 -15h-268q0 1 -1.5 5t-1.5 5q3 3 26 5q54 2 64 111l-2 238q-134 -98 -281 -98q-149 0 -232 95q-75 87 -75 227
q0 137 99 238q101 101 242 101q64 0 121 -22q19 -7 38.5 -17t40.5 -24q34 -22 41 -22q15 0 33 19t26 51h32q-2 -149 0 -391q3 -305 3 -391q0 -41 19 -72q25 -43 77 -43z" />
    <glyph glyph-name="r" unicode="r" horiz-adv-x="456" 
d="M446 499q0 31 -16 54q-20 28 -54 30q-57 1 -110 -61q-47 -58 -53 -113q-9 -96 -6 -235q1 -77 15 -109q19 -46 75 -46v-19h-253v19q76 0 78 71q5 133 5.5 245t-3.5 206q-1 15 -8.5 27.5t-19 21.5t-25 14t-27.5 5v18h167v-95q68 59 83 68q61 42 121 42q15 0 26.5 -4
t22.5 -9v-130h-18z" />
    <glyph glyph-name="s" unicode="s" horiz-adv-x="559" 
d="M278 -19q-144 0 -214 70l-1 117h24q0 -63 69 -109q63 -42 131 -42q59 0 113 42q58 46 58 107q0 77 -106 110l-97.5 26l-97.5 27q-105 43 -105 143q0 85 77 133q58 37 125 37q95 0 158 -25q5 -2 20 -10l40 -22l-1 -119q-22 1 -25 0q0 43 -54 91q-62 54 -140 54
q-53 0 -93 -32q-39 -32 -39 -79q0 -72 108 -106l101 -27.5l101 -27.5q108 -44 108 -141q0 -121 -109 -179q-73 -38 -151 -38z" />
    <glyph glyph-name="t" unicode="t" horiz-adv-x="428" 
d="M440 29q-35 -27 -55 -36q-18 -7 -43.5 -10.5t-57.5 -2.5q-71 2 -119 57q-47 58 -47 136q0 105 -1.5 204.5t-3.5 196.5h-105v39q58 -3 109 42q52 47 53 103h25v-37.5t1 -95.5h221v-50q-19 -1 -74 -1h-148q0 -181 1 -280t3 -119q5 -50 33 -92q33 -51 80 -51q46 0 68 8
l54 24z" />
    <glyph glyph-name="u" unicode="u" horiz-adv-x="766" 
d="M540 0l1 97q-41 -47 -109 -82q-67 -34 -124 -34q-88 0 -142 54q-50 50 -59 130l-12 339q1 106 -80 106q-2 0 0 17l165 -1q0 -13 -2 -23q-1 -5 -1 -93v-53t1 -80q1 -46 1 -79.5v-53.5q0 -86 42 -146q46 -67 128 -67q55 0 123 54q73 57 74 114q1 24 1 101v209q0 99 -84 99
q1 4 0 18h164l2 -77v-67t-1 -45q-2 -54 -3 -129.5t-1 -173.5q0 -51 22 -82q23 -35 69 -35v-17h-175z" />
    <glyph glyph-name="v" unicode="v" horiz-adv-x="632" 
d="M713 607q-47 0 -73 -17q-22 -17 -48 -65l-66.5 -127l-91.5 -179q-116 -228 -120 -237h-30l-21 48t-30 71q-92 241 -174 417q-17 38 -29 51q-33 37 -92 37v21h274v-21q-73 0 -73 -38q0 -45 84 -247q67 -164 96 -219q188 345 225 458q2 10 2 14q0 33 -77 33v20q78 -1 244 0
v-20z" />
    <glyph glyph-name="w" unicode="w" horiz-adv-x="1056" 
d="M1123 608q-45 1 -83 -40q-27 -30 -56 -92l-20 -46.5l-20 -46.5q-7 -13 -52 -111.5l-130 -284.5q-5 -8 -20 -8q-17 0 -22 11q-16 36 -44.5 109l-70.5 184q-66 177 -73 178q-6 -1 -98 -196l-79 -171.5t-49 -116.5q-33 0 -36 5q-37 77 -62 149q-8 23 -31 77l-60 139
l-61.5 139.5t-33.5 68.5q-32 54 -91 54v18h264v-18q-71 0 -71 -47q0 -13 74 -194l54 -131.5l55 -131.5q36 70 132 288l67 152l35 81q18 1 23.5 -2t12.5 -16l32.5 -85.5l45.5 -119.5q14 -43 40.5 -115.5l66.5 -175.5q66 129 112 235.5t75 192.5q5 15 5 25q0 43 -74 43v19h243
v-19z" />
    <glyph glyph-name="x" unicode="x" horiz-adv-x="668" 
d="M398 -2v19h26q8 2 16.5 5t16.5 5q24 8 26 23q2 24 -73 124l-38 49.5l-39 49.5l-45.5 -57.5l-45.5 -57.5q-71 -92 -71 -122q0 -17 34 -20h51v-18l-2 -5q-14 -1 -38.5 -0.5t-59.5 1.5q-96 1 -165 3v23q45 -3 65 6q42 20 124 125l63 82l62 82l-71.5 98t-32.5 43
q-69 89 -124 141q-13 12 -32 13q-8 1 -15 1h-15l-2 15h260l3 -14q-61 0 -61 -23q0 -20 53 -91l44 -57.5l45 -57.5l42 50l42 51q59 73 59 89q0 22 -28 29q-12 2 -24 3t-23 3q-8 7 0 18h232q-1 1 -1 -21q-69 -6 -150 -104l-123 -162l76 -102l76 -102q25 -32 50.5 -59.5
t51.5 -49.5q10 -8 32 -10q7 -1 14 -1t15 -1v-16h-300z" />
    <glyph glyph-name="y" unicode="y" horiz-adv-x="624" 
d="M699 606q-45 -3 -63 -23q-6 -6 -30 -54l-95 -187l-137 -272l-76 -148.5t-50 -87.5q-65 -99 -115 -99q-44 0 -60 49l18 16q17 -14 31 -14q31 0 79 83q9 16 26.5 51l43.5 89l-65 156l-66 157q-97 226 -127 260q-13 15 -25 19q-6 2 -17 3t-28 2v21h252v-21q-69 0 -66 -32
q4 -35 87 -231q79 -190 104 -230l96 189l123 245q7 14 7 26q0 33 -69 33v21h222v-21z" />
    <glyph glyph-name="z" unicode="z" horiz-adv-x="607" 
d="M35 -1q-5 5 -4 17q1 14 1.5 23.5t0.5 14.5q7 11 57 75.5l146 184.5q190 239 205 265q-23 2 -89.5 2.5t-177.5 -1.5q-54 -2 -54 -96q-1 -1 -20 -1v144h452l-1 -41l-150 -187.5l-273 -348.5q122 -6 340 -3q82 1 82 85h20v-132z" />
    <glyph glyph-name="guillemotleft" unicode="&#xab;" horiz-adv-x="515" 
d="M349 -2q-19 16 -55.5 51.5l-92.5 92.5l-147 150q-9 9 -9 21q0 11 7 18l129.5 132.5l167.5 166.5q12 -8 12 -22q0 -19 -19 -42q-162 -207 -205 -249l89 -110.5l116 -140.5q21 -24 21 -40q0 -7 -4.5 -14.5t-9.5 -13.5zM533 -2q-19 16 -56 51.5l-92 92.5l-147 150
q-9 9 -9 21q0 11 7 18l129 132.5l168 166.5q11 -8 11 -22q0 -18 -18 -42l-132 -165t-74 -84l89.5 -110.5l116.5 -140.5q21 -24 21 -40q0 -7 -5 -14.5z" />
    <glyph glyph-name="bullet" unicode="&#x2022;" horiz-adv-x="344" 
d="M105 774q0 27 18.5 45.5t45.5 18.5q26 0 45 -18.5t19 -45.5t-19 -45.5t-45 -18.5q-27 0 -45.5 18.5t-18.5 45.5z" />
    <glyph glyph-name="guillemotright" unicode="&#xbb;" horiz-adv-x="515" 
d="M208 625q37 -32 147 -144l147 -150q10 -9 10 -21q0 -11 -7 -18l-129.5 -132.5l-167.5 -166.5q-12 7 -12 22q0 18 18 42q159 204 206 249l-89 110.5l-117 140.5q-21 24 -21 40q0 8 5 15t10 13zM24 625q19 -16 56 -51.5l92 -92.5l147 -150q9 -9 9 -21q0 -11 -7 -18
l-129 -132.5l-168 -166.5q-12 7 -12 22q0 19 19 42q162 207 205 249l-89 110.5l-116 140.5q-21 24 -21 40q0 8 5 15z" />
    <glyph glyph-name="ellipsis" unicode="&#x2026;" horiz-adv-x="151" 
d="M24 47q0 27 18.5 45.5t45.5 18.5t45.5 -18.5t18.5 -45.5t-18.5 -45.5t-45.5 -18.5t-45.5 18.5t-18.5 45.5zM228 42q0 27 18.5 45.5t45.5 18.5t45.5 -18.5t18.5 -45.5t-18.5 -45.5t-45.5 -18.5t-45.5 18.5t-18.5 45.5zM432 44q0 27 18.5 45.5t45.5 18.5t45.5 -18.5
t18.5 -45.5t-18.5 -45.5t-45.5 -18.5t-45.5 18.5t-18.5 45.5z" />
    <glyph glyph-name="grave" unicode="`" 
d="M273 683q-2 -1 -6 -2.5t-11 -3.5l-66 43l-66 42q-107 74 -107 104q0 10 10.5 16.5t20.5 6.5q42 0 120 -82q17 -18 43.5 -48.5t61.5 -75.5z" />
    <glyph glyph-name="acute" unicode="&#xb4;" 
d="M88 673q35 45 61.5 75.5t43.5 48.5q78 81 120 81q10 0 20.5 -6.5t10.5 -15.5q0 -31 -108 -104l-66 -43l-65 -42q-7 2 -11 3.5t-6 2.5z" />
    <glyph glyph-name="circumflex" unicode="&#x2c6;" 
d="M369 671l-179 144l-75 -63l-100 -81l-16 10q147 205 199 205t184 -207z" />
    <glyph glyph-name="dieresis" unicode="&#xa8;" 
d="M203 733q0 27 18.5 45.5t45.5 18.5t45.5 -18.5t18.5 -45.5q0 -26 -19.5 -43.5t-46.5 -17.5t-44.5 17.5t-17.5 43.5zM19 736q0 26 19 45t45 19q27 0 45.5 -19t18.5 -45t-20.5 -44.5t-47.5 -18.5q-26 0 -43 18t-17 45z" />
    <glyph glyph-name="dotlessi" unicode="&#x131;" horiz-adv-x="344" 
d="M52 -1v18q52 0 68 31q8 14 11 49q4 48 5 153t-1 271q0 87 -82 87v19h171q0 -2 -1.5 -68.5t-3.5 -200.5q-1 -81 -1 -139t2 -95q2 -63 23 -85t71 -22l-1 -18h-261z" />
    <glyph glyph-name="oe" unicode="&#x153;" horiz-adv-x="1209" 
d="M620 311q0 174 -108 245q-59 40 -141 40q-77 0 -141 -45q-106 -73 -106 -242q0 -121 87 -206q76 -75 156 -75q104 0 178 81q75 81 75 202zM1078 445q-2 23 -8 42t-14 35q-42 76 -140 76q-63 0 -112 -38q-35 -29 -60 -72q-5 -11 -9 -21t-9 -20zM721 393q-10 -4 -10 -71
q0 -118 82 -206q78 -83 170 -83q103 0 206 70l-1 -42q-83 -80 -252 -80q-175 0 -257 162q-29 -47 -69 -81q-96 -81 -227 -81q-157 0 -245 108q-73 88 -73 205q0 181 141 279q100 69 202 69q123 0 208 -64q46 -34 71 -77q88 141 264 141q160 0 221 -124q29 -60 29 -125h-460z
" />
    <glyph glyph-name="degree" unicode="&#xb0;" horiz-adv-x="278" 
d="M94 694q-29 0 -48.5 -20t-19.5 -48t19.5 -48t48.5 -20q28 0 47.5 20t19.5 48t-19.5 48t-47.5 20zM94 523q-22 0 -41 8t-33 22t-22 33t-8 40t8 40t22 32.5t33 21.5t41 8q21 0 39.5 -8t33 -21.5t22.5 -32.5t8 -40t-8 -40t-22 -33t-33 -22t-40 -8z" />
    <glyph glyph-name="Aacute" unicode="&#xc1;" horiz-adv-x="965" 
d="M480 791l-149 -341h283zM696 0l2 22q73 4 73 43q0 3 -2 11q-5 18 -129 312h-333l-147 -316q-5 -13 -5 -22q0 -25 33 -26q10 -1 18.5 -1t15.5 -1v-22h-219q-1 0 0 22q2 -5 25 1q25 6 38 13q22 10 189 384l113.5 255t56.5 135q2 6 2 9q0 7 -4 14.5t-10 13.5t-13 10t-13 4
h-24.5t-30.5 1v24h195l338 -811q18 -35 39 -46q11 -5 47 -7q1 -3 1 -8.5t1 -13.5h-257z" />
    <glyph glyph-name="Acircumflex" unicode="&#xc2;" horiz-adv-x="965" 
d="M637 879l-179 144l-75 -63l-100 -81l-16 10q147 205 199 205t184 -207zM480 791l-149 -341h283zM696 0l2 22q73 4 73 43q0 3 -2 11q-5 18 -129 312h-333l-147 -316q-5 -13 -5 -22q0 -25 33 -26q10 -1 18.5 -1t15.5 -1v-22h-219q-1 0 0 22q2 -5 25 1q25 6 38 13
q22 10 189 384l113.5 255t56.5 135q2 6 2 9q0 7 -4 14.5t-10 13.5t-13 10t-13 4h-24.5t-30.5 1v24h195l338 -811q18 -35 39 -46q11 -5 47 -7q1 -3 1 -8.5t1 -13.5h-257z" />
    <glyph glyph-name="Agrave" unicode="&#xc0;" horiz-adv-x="965" 
d="M508 899q-2 -1 -6 -2.5t-11 -3.5l-66 43l-66 42q-107 74 -107 104q0 10 10.5 16.5t20.5 6.5q42 0 120 -82q17 -18 43.5 -48.5t61.5 -75.5zM480 791l-149 -341h283zM696 0l2 22q73 4 73 43q0 3 -2 11q-5 18 -129 312h-333l-147 -316q-5 -13 -5 -22q0 -25 33 -26
q10 -1 18.5 -1t15.5 -1v-22h-219q-1 0 0 22q2 -5 25 1q25 6 38 13q22 10 189 384l113.5 255t56.5 135q2 6 2 9q0 7 -4 14.5t-10 13.5t-13 10t-13 4h-24.5t-30.5 1v24h195l338 -811q18 -35 39 -46q11 -5 47 -7q1 -3 1 -8.5t1 -13.5h-257z" />
    <glyph glyph-name="Eacute" unicode="&#xc9;" horiz-adv-x="752" 
d="M655 886l-6 -146h-22q-3 105 -92 105l-301 1l-5 -350q104 -1 175 -1t110 2q48 2 64 36q11 23 8 40h23v-201h-23q-2 78 -66 78l-291 -1q0 3 0 -41.5t1 -137.5v-216q22 -8 332 -8q83 0 87 82q12 -2 21 0q-1 -32 -1.5 -64t-1.5 -64h-611l1 19q92 8 92 65q0 256 -1 433.5
t-3 282.5q-1 38 -42 58q-18 8 -41 11v17h593zM261 905q35 45 61.5 75.5t43.5 48.5q78 81 120 81q10 0 20.5 -6.5t10.5 -15.5q0 -31 -108 -104l-66 -43l-65 -42q-7 2 -11 3.5t-6 2.5z" />
    <glyph glyph-name="Ecircumflex" unicode="&#xca;" horiz-adv-x="752" 
d="M655 886l-6 -146h-22q-3 105 -92 105l-301 1l-5 -350q104 -1 175 -1t110 2q48 2 64 36q11 23 8 40h23v-201h-23q-2 78 -66 78l-291 -1q0 3 0 -41.5t1 -137.5v-216q22 -8 332 -8q83 0 87 82q12 -2 21 0q-1 -32 -1.5 -64t-1.5 -64h-611l1 19q92 8 92 65q0 256 -1 433.5
t-3 282.5q-1 38 -42 58q-18 8 -41 11v17h593zM562 895l-179 144l-75 -63l-100 -81l-16 10q147 205 199 205t184 -207z" />
    <glyph glyph-name="Edieresis" unicode="&#xcb;" horiz-adv-x="752" 
d="M655 886l-6 -146h-22q-3 105 -92 105l-301 1l-5 -350q104 -1 175 -1t110 2q48 2 64 36q11 23 8 40h23v-201h-23q-2 78 -66 78l-291 -1q0 3 0 -41.5t1 -137.5v-216q22 -8 332 -8q83 0 87 82q12 -2 21 0q-1 -32 -1.5 -64t-1.5 -64h-611l1 19q92 8 92 65q0 256 -1 433.5
t-3 282.5q-1 38 -42 58q-18 8 -41 11v17h593z" />
    <glyph glyph-name="Egrave" unicode="&#xc8;" horiz-adv-x="752" 
d="M455 907q-2 -1 -6 -2.5t-11 -3.5l-66 43l-66 42q-107 74 -107 104q0 10 10 16.5t21 6.5q42 0 120 -82q17 -18 43.5 -48.5t61.5 -75.5zM62 886v-17q23 -3 41 -11q41 -20 42 -58q2 -105 3 -282.5t1 -433.5q0 -57 -92 -65l-1 -19h611q1 32 1.5 64t1.5 64q-9 -2 -21 0
q-4 -82 -87 -82q-310 0 -332 8v216q-1 93 -1 137.5t0 41.5l291 1q64 0 66 -78h23v201h-23q3 -17 -8 -40q-16 -34 -64 -36q-39 -2 -110 -2t-175 1l5 350l301 -1q89 0 92 -105h22l6 146h-593z" />
    <glyph glyph-name="Oacute" unicode="&#xd3;" horiz-adv-x="960" 
d="M834 452q0 196 -94 300q-93 105 -254 105q-142 0 -245 -108q-115 -118 -115 -311q0 -195 118 -307q104 -98 251 -98q128 0 225 100q114 117 114 319zM930 463q0 -190 -116 -329q-128 -153 -338 -153q-211 0 -331 144q-109 130 -109 330q0 191 136 318q136 129 334 129
q211 0 327 -141q97 -119 97 -298z" />
    <glyph glyph-name="Ocircumflex" unicode="&#xd4;" horiz-adv-x="960" 
d="M834 452q0 196 -94 300q-93 105 -254 105q-142 0 -245 -108q-115 -118 -115 -311q0 -195 118 -307q104 -98 251 -98q128 0 225 100q114 117 114 319zM930 463q0 -190 -116 -329q-128 -153 -338 -153q-211 0 -331 144q-109 130 -109 330q0 191 136 318q136 129 334 129
q211 0 327 -141q97 -119 97 -298z" />
    <glyph glyph-name="Ograve" unicode="&#xd2;" horiz-adv-x="960" 
d="M834 452q0 196 -94 300q-93 105 -254 105q-142 0 -245 -108q-115 -118 -115 -311q0 -195 118 -307q104 -98 251 -98q128 0 225 100q114 117 114 319zM930 463q0 -190 -116 -329q-128 -153 -338 -153q-211 0 -331 144q-109 130 -109 330q0 191 136 318q136 129 334 129
q211 0 327 -141q97 -119 97 -298z" />
    <glyph glyph-name="aacute" unicode="&#xe1;" horiz-adv-x="634" 
d="M281 683q35 45 61.5 75.5t43.5 48.5q78 81 120 81q10 0 20.5 -6.5t10.5 -15.5q0 -31 -108 -104l-66 -43l-65 -42q-7 2 -11 3.5t-6 2.5zM487 300q-152 4 -227 -14q-132 -32 -132 -134q0 -51 41 -92q42 -39 93 -39q118 0 222 87q3 3 3 192zM660 -1q-95 1 -159 0
q-14 3 -14 48l-79.5 -33t-48.5 -18q-48 -15 -98 -15q-113 0 -171 63q-46 49 -46 115q0 97 85 143q32 17 77 28t105 15q4 1 174 3q4 118 -45 186q-46 64 -129 64q-42 0 -98 -19q-50 -17 -85 -41q-2 11 0 46q86 58 200 58q91 0 153 -43q86 -59 86 -188l5 -307q0 -33 22 -58
q26 -29 67 -29q1 -1 -1 -18z" />
    <glyph glyph-name="acircumflex" unicode="&#xe2;" horiz-adv-x="634" 
d="M500 666l-179 144l-75 -63l-100 -81l-16 10q147 205 199 205t184 -207zM487 300q-152 4 -227 -14q-132 -32 -132 -134q0 -51 41 -92q42 -39 93 -39q118 0 222 87q3 3 3 192zM660 -1q-95 1 -159 0q-14 3 -14 48l-79.5 -33t-48.5 -18q-48 -15 -98 -15q-113 0 -171 63
q-46 49 -46 115q0 97 85 143q32 17 77 28t105 15q4 1 174 3q4 118 -45 186q-46 64 -129 64q-42 0 -98 -19q-50 -17 -85 -41q-2 11 0 46q86 58 200 58q91 0 153 -43q86 -59 86 -188l5 -307q0 -33 22 -58q26 -29 67 -29q1 -1 -1 -18z" />
    <glyph glyph-name="adieresis" unicode="&#xe4;" horiz-adv-x="634" 
d="M371 739q0 27 18.5 45.5t45.5 18.5t45.5 -18.5t18.5 -45.5q0 -26 -19.5 -43.5t-46.5 -17.5t-44.5 17.5t-17.5 43.5zM187 742q0 26 19 45t45 19q27 0 45.5 -19t18.5 -45t-20.5 -44.5t-47.5 -18.5q-26 0 -43 18t-17 45zM487 300q-152 4 -227 -14q-132 -32 -132 -134
q0 -51 41 -92q42 -39 93 -39q118 0 222 87q3 3 3 192zM660 -1q-95 1 -159 0q-14 3 -14 48l-79.5 -33t-48.5 -18q-48 -15 -98 -15q-113 0 -171 63q-46 49 -46 115q0 97 85 143q32 17 77 28t105 15q4 1 174 3q4 118 -45 186q-46 64 -129 64q-42 0 -98 -19q-50 -17 -85 -41
q-2 11 0 46q86 58 200 58q91 0 153 -43q86 -59 86 -188l5 -307q0 -33 22 -58q26 -29 67 -29q1 -1 -1 -18z" />
    <glyph glyph-name="agrave" unicode="&#xe0;" horiz-adv-x="634" 
d="M454 678q-2 -1 -6 -2.5t-11 -3.5l-66 43l-66 42q-107 74 -107 104q0 10 10.5 16.5t20.5 6.5q42 0 120 -82q17 -18 43.5 -48.5t61.5 -75.5zM487 300q-152 4 -227 -14q-132 -32 -132 -134q0 -51 41 -92q42 -39 93 -39q118 0 222 87q3 3 3 192zM660 -1q-95 1 -159 0
q-14 3 -14 48l-79.5 -33t-48.5 -18q-48 -15 -98 -15q-113 0 -171 63q-46 49 -46 115q0 97 85 143q32 17 77 28t105 15q4 1 174 3q4 118 -45 186q-46 64 -129 64q-42 0 -98 -19q-50 -17 -85 -41q-2 11 0 46q86 58 200 58q91 0 153 -43q86 -59 86 -188l5 -307q0 -33 22 -58
q26 -29 67 -29q1 -1 -1 -18z" />
    <glyph glyph-name="ccedilla" unicode="&#xe7;" horiz-adv-x="607" 
d="M293 -76q24 0 37 -13q11 -11 11 -21q0 -15 -11 -29.5t-21 -14.5q-18 0 -35 14q-9 -11 -1 -16l6 -4t5 -4q14 -8 25 -8q10 0 22 5.5t22 16t16.5 24t6.5 30.5q0 34 -55 41l1 36h-35zM580 55q2 -14 -74 -42q-87 -34 -176 -34q-174 0 -259 129q-56 86 -56 179q0 188 138 284
q103 70 230 70q22 0 46.5 -2.5t51.5 -7.5q56 -11 71 -23l-11 -142q-10 0 -22 5q-3 83 -86 116q-28 11 -71 11q-120 0 -192 -83q-68 -79 -68 -195q0 -130 87 -215q78 -78 176 -78q70 0 119 17q37 13 96 51v-40z" />
    <glyph glyph-name="eacute" unicode="&#xe9;" 
d="M228 680q35 45 61.5 75.5t43.5 48.5q78 81 120 81q10 0 20.5 -6.5t10.5 -15.5q0 -31 -108 -104l-66 -43l-65 -42q-7 2 -11 3.5t-6 2.5zM498 448q0 64 -48 109q-47 46 -113 46q-72 0 -129 -54q-47 -45 -62 -101h352zM589 392q-71 -2 -460 0q-10 -30 -10 -81
q0 -106 81 -193q78 -83 163 -83q86 0 154 33l60 36q-2 -15 0 -45q-102 -78 -254 -78q-127 0 -212 96q-85 95 -85 245q0 130 81 220q88 100 236 100q99 0 167 -61q79 -69 79 -189z" />
    <glyph glyph-name="ecircumflex" unicode="&#xea;" 
d="M516 665l-179 144l-75 -63l-100 -81l-16 10q147 205 199 205t184 -207zM498 448q0 64 -48 109q-47 46 -113 46q-72 0 -129 -54q-47 -45 -62 -101h352zM589 392q-71 -2 -460 0q-10 -30 -10 -81q0 -106 81 -193q78 -83 163 -83q86 0 154 33l60 36q-2 -15 0 -45
q-102 -78 -254 -78q-127 0 -212 96q-85 95 -85 245q0 130 81 220q88 100 236 100q99 0 167 -61q79 -69 79 -189z" />
    <glyph glyph-name="edieresis" unicode="&#xeb;" 
d="M405 769q0 27 18.5 45.5t45.5 18.5t45.5 -18.5t18.5 -45.5q0 -26 -19.5 -43.5t-46.5 -17.5t-44.5 17.5t-17.5 43.5zM221 772q0 26 19 45t45 19q27 0 45.5 -19t18.5 -45t-20.5 -44.5t-47.5 -18.5q-26 0 -43 18t-17 45zM498 448q0 64 -48 109q-47 46 -113 46
q-72 0 -129 -54q-47 -45 -62 -101h352zM589 392q-71 -2 -460 0q-10 -30 -10 -81q0 -106 81 -193q78 -83 163 -83q86 0 154 33l60 36q-2 -15 0 -45q-102 -78 -254 -78q-127 0 -212 96q-85 95 -85 245q0 130 81 220q88 100 236 100q99 0 167 -61q79 -69 79 -189z" />
    <glyph glyph-name="egrave" unicode="&#xe8;" 
d="M450 677q-2 -1 -6 -2.5t-11 -3.5l-66 43l-66 42q-107 74 -107 104q0 10 10.5 16.5t20.5 6.5q42 0 120 -82q17 -18 43.5 -48.5t61.5 -75.5zM498 448q0 64 -48 109q-47 46 -113 46q-72 0 -129 -54q-47 -45 -62 -101h352zM589 392q-71 -2 -460 0q-10 -30 -10 -81
q0 -106 81 -193q78 -83 163 -83q86 0 154 33l60 36q-2 -15 0 -45q-102 -78 -254 -78q-127 0 -212 96q-85 95 -85 245q0 130 81 220q88 100 236 100q99 0 167 -61q79 -69 79 -189z" />
    <glyph glyph-name="iacute" unicode="&#xed;" horiz-adv-x="344" 
d="M66 672q35 45 61.5 76t43.5 48q78 82 120 82q10 0 20.5 -6.5t10.5 -16.5q0 -30 -108 -103l-66 -43l-65 -43q-7 2 -11 3.5t-6 2.5zM52 -1v18q52 0 68 31q8 14 11 49q4 48 5 153t-1 271q0 87 -82 87v19h171q0 -2 -1.5 -68.5t-3.5 -200.5q-1 -81 -1 -139t2 -95q2 -63 23 -85
t71 -22l-1 -18h-261z" />
    <glyph glyph-name="icircumflex" unicode="&#xee;" horiz-adv-x="344" 
d="M345 671l-179 144l-75 -63l-100 -81l-16 10q147 205 199 205t184 -207zM52 -1v18q52 0 68 31q8 14 11 49q4 48 5 153t-1 271q0 87 -82 87v19h171q0 -2 -1.5 -68.5t-3.5 -200.5q-1 -81 -1 -139t2 -95q2 -63 23 -85t71 -22l-1 -18h-261z" />
    <glyph glyph-name="idieresis" unicode="&#xef;" horiz-adv-x="344" 
d="M192 780q0 26 19 45t45 19q27 0 45.5 -19t18.5 -45t-19.5 -43.5t-46.5 -17.5q-26 0 -44 17.5t-18 43.5zM9 783q0 26 18.5 45t45.5 19q26 0 45 -19t19 -45t-21 -44.5t-48 -18.5q-26 0 -42.5 18t-16.5 45zM52 -1v18q52 0 68 31q8 14 11 49q4 48 5 153t-1 271q0 87 -82 87
v19h171q0 -2 -1.5 -68.5t-3.5 -200.5q-1 -81 -1 -139t2 -95q2 -63 23 -85t71 -22l-1 -18h-261z" />
    <glyph glyph-name="igrave" unicode="&#xec;" horiz-adv-x="344" 
d="M248 683q-2 -1 -6 -2.5t-11 -3.5l-66 43l-66 42q-107 74 -107 104q0 10 10.5 16.5t20.5 6.5q42 0 120 -82q17 -18 43.5 -48.5t61.5 -75.5zM52 -1v18q52 0 68 31q8 14 11 49q4 48 5 153t-1 271q0 87 -82 87v19h171q0 -2 -1.5 -68.5t-3.5 -200.5q-1 -81 -1 -139t2 -95
q2 -63 23 -85t71 -22l-1 -18h-261z" />
    <glyph glyph-name="oacute" unicode="&#xf3;" horiz-adv-x="739" 
d="M309 679q35 45 61.5 75.5t43.5 48.5q78 81 120 81q10 0 20.5 -6.5t10.5 -15.5q0 -31 -108 -104l-66 -43l-65 -42q-7 2 -11 3.5t-6 2.5zM620 334q0 109 -72 186q-70 76 -174 76t-176 -73q-76 -76 -76 -204q0 -120 86 -211q79 -81 164 -81q131 0 198 115q50 86 50 192z
M352 -19q-152 0 -239 113q-70 91 -70 201q0 157 119 258q106 89 230 89q128 0 223 -83q96 -86 96 -208q0 -180 -113 -281q-100 -89 -246 -89z" />
    <glyph glyph-name="ocircumflex" unicode="&#xf4;" horiz-adv-x="739" 
d="M575 666l-179 144l-75 -63l-100 -81l-16 10q147 205 199 205t184 -207zM620 334q0 109 -72 186q-70 76 -174 76t-176 -73q-76 -76 -76 -204q0 -120 86 -211q79 -81 164 -81q131 0 198 115q50 86 50 192zM352 -19q-152 0 -239 113q-70 91 -70 201q0 157 119 258
q106 89 230 89q128 0 223 -83q96 -86 96 -208q0 -180 -113 -281q-100 -89 -246 -89z" />
    <glyph glyph-name="odieresis" unicode="&#xf6;" horiz-adv-x="749" 
d="M412 736q0 27 18.5 45.5t45.5 18.5t45.5 -18.5t18.5 -45.5q0 -26 -19.5 -43.5t-46.5 -17.5t-44.5 17.5t-17.5 43.5zM228 739q0 26 19 45t45 19q27 0 45.5 -19t18.5 -45t-20.5 -44.5t-47.5 -18.5q-26 0 -43 18t-17 45zM620 334q0 109 -72 186q-70 76 -174 76t-176 -73
q-76 -76 -76 -204q0 -120 86 -211q79 -81 164 -81q131 0 198 115q50 86 50 192zM352 -19q-152 0 -239 113q-70 91 -70 201q0 157 119 258q106 89 230 89q128 0 223 -83q96 -86 96 -208q0 -180 -113 -281q-100 -89 -246 -89z" />
    <glyph glyph-name="ograve" unicode="&#xf2;" horiz-adv-x="749" 
d="M449 683q-2 -1 -6 -2.5t-11 -3.5l-66 43l-66 42q-107 74 -107 104q0 10 10.5 16.5t20.5 6.5q42 0 120 -82q17 -18 43.5 -48.5t61.5 -75.5zM620 334q0 109 -72 186q-70 76 -174 76t-176 -73q-76 -76 -76 -204q0 -120 86 -211q79 -81 164 -81q131 0 198 115q50 86 50 192z
M352 -19q-152 0 -239 113q-70 91 -70 201q0 157 119 258q106 89 230 89q128 0 223 -83q96 -86 96 -208q0 -180 -113 -281q-100 -89 -246 -89z" />
    <glyph glyph-name="uacute" unicode="&#xfa;" horiz-adv-x="755" 
d="M279 678q35 45 61.5 75.5t43.5 48.5q78 81 120 81q10 0 20.5 -6.5t10.5 -15.5q0 -31 -108 -104l-66 -43l-65 -42q-7 2 -11 3.5t-6 2.5zM540 0l1 97q-41 -47 -109 -82q-67 -34 -124 -34q-88 0 -142 54q-50 50 -59 130l-12 339q1 106 -80 106q-2 0 0 17l165 -1
q0 -13 -2 -23q-1 -5 -1 -93v-53t1 -80q1 -46 1 -79.5v-53.5q0 -86 42 -146q46 -67 128 -67q55 0 123 54q73 57 74 114q1 24 1 101v209q0 99 -84 99q1 4 0 18h164l2 -77v-67t-1 -45q-2 -54 -3 -129.5t-1 -173.5q0 -51 22 -82q23 -35 69 -35v-17h-175z" />
    <glyph glyph-name="ucircumflex" unicode="&#xfb;" horiz-adv-x="755" 
d="M535 673l-179 144l-75 -63l-100 -81l-16 10q147 205 199 205t184 -207zM540 0l1 97q-41 -47 -109 -82q-67 -34 -124 -34q-88 0 -142 54q-50 50 -59 130l-12 339q1 106 -80 106q-2 0 0 17l165 -1q0 -13 -2 -23q-1 -5 -1 -93v-53t1 -80q1 -46 1 -79.5v-53.5q0 -86 42 -146
q46 -67 128 -67q55 0 123 54q73 57 74 114q1 24 1 101v209q0 99 -84 99q1 4 0 18h164l2 -77v-67t-1 -45q-2 -54 -3 -129.5t-1 -173.5q0 -51 22 -82q23 -35 69 -35v-17h-175z" />
    <glyph glyph-name="udieresis" unicode="&#xfc;" horiz-adv-x="755" 
d="M356 735q0 27 18.5 45.5t45.5 18.5t45.5 -18.5t18.5 -45.5q0 -26 -19.5 -43.5t-46.5 -17.5t-44.5 17.5t-17.5 43.5zM172 738q0 26 19 45t45 19q27 0 45.5 -19t18.5 -45t-20.5 -44.5t-47.5 -18.5q-26 0 -43 18t-17 45zM540 0l1 97q-41 -47 -109 -82q-67 -34 -124 -34
q-88 0 -142 54q-50 50 -59 130l-12 339q1 106 -80 106q-2 0 0 17l165 -1q0 -13 -2 -23q-1 -5 -1 -93v-53t1 -80q1 -46 1 -79.5v-53.5q0 -86 42 -146q46 -67 128 -67q55 0 123 54q73 57 74 114q1 24 1 101v209q0 99 -84 99q1 4 0 18h164l2 -77v-67t-1 -45q-2 -54 -3 -129.5
t-1 -173.5q0 -51 22 -82q23 -35 69 -35v-17h-175z" />
    <glyph glyph-name="ugrave" unicode="&#xf9;" horiz-adv-x="755" 
d="M372 679q-2 -1 -6 -2.5t-11 -3.5l-66 43l-66 42q-107 74 -107 104q0 10 10.5 16.5t20.5 6.5q42 0 120 -82q17 -18 43.5 -48.5t61.5 -75.5zM540 0l1 97q-41 -47 -109 -82q-67 -34 -124 -34q-88 0 -142 54q-50 50 -59 130l-12 339q1 106 -80 106q-2 0 0 17l165 -1
q0 -13 -2 -23q-1 -5 -1 -93v-53t1 -80q1 -46 1 -79.5v-53.5q0 -86 42 -146q46 -67 128 -67q55 0 123 54q73 57 74 114q1 24 1 101v209q0 99 -84 99q1 4 0 18h164l2 -77v-67t-1 -45q-2 -54 -3 -129.5t-1 -173.5q0 -51 22 -82q23 -35 69 -35v-17h-175z" />
    <glyph glyph-name="quoteright" unicode="&#x2019;" horiz-adv-x="210" 
d="M73 805q47 0 49 -78q2 -74 -107 -142l-13 13q61 54 61 119q-40 0 -40 39q0 23 17 37q13 12 33 12z" />
    <glyph glyph-name="exclam" unicode="!" horiz-adv-x="147" 
d="M83 886q47 0 47 -232q0 -112 -12 -292q-5 -88 -8 -133t-3 -48q-28 1 -46 0q-5 74 -9 147t-9 146q-9 154 -9 233q0 179 49 179zM20 47q0 27 18.5 45.5t45.5 18.5t45.5 -18.5t18.5 -45.5t-18.5 -45.5t-45.5 -18.5t-45.5 18.5t-18.5 45.5z" />
    <glyph glyph-name="nonbreakingspace" unicode="&#xe002;" horiz-adv-x="376" 
 />
  </font>
</defs>
</svg>
